HIERARCHY
ROOT Hips
{
  OFFSET 0 0 0
  CHANNELS 6 Xposition Yposition Zposition Zrotation Yrotation Xrotation
  JOINT LeftThigh
  {
    OFFSET 8.409438 0 -5.917753
    CHANNELS 3 Zrotation Yrotation Xrotation
    JOINT LeftLeg
    {
      OFFSET 0 0 -42.358652
      CHANNELS 3 Zrotation Yrotation Xrotation
      JOINT LeftFoot
      {
        OFFSET 0 0 -39.357303
        CHANNELS 3 Zrotation Yrotation Xrotation
      }
    }
  }
  JOINT RightThigh
  {
    OFFSET -8.409438 0 -5.917753
    CHANNELS 3 Zrotation Yrotation Xrotation
    JOINT RightLeg
    {
      OFFSET 0 0 -42.358652
      CHANNELS 3 Zrotation Yrotation Xrotation
      JOINT RightFoot
      {
        OFFSET 0 0 -39.357303
        CHANNELS 3 Zrotation Yrotation Xrotation
      }
    }
  }
  JOINT SpineLow
  {
    OFFSET 0 0 4.719101
    CHANNELS 3 Zrotation Yrotation Xrotation
    JOINT SpineMid
    {
      OFFSET 0 0 12.899191
      CHANNELS 3 Zrotation Yrotation Xrotation
      JOINT Chest
      {
        OFFSET 0 0 12.899191
        CHANNELS 3 Zrotation Yrotation Xrotation
        JOINT LeftShoulder
        {
          OFFSET 7.550562 1.41573 9.438202
          CHANNELS 3 Zrotation Yrotation Xrotation
          JOINT LeftArm
          {
            OFFSET 9.155056 0 4.247191
            CHANNELS 3 Zrotation Yrotation Xrotation
            JOINT LeftForearm
            {
              OFFSET 0 0 25.771955
              CHANNELS 3 Zrotation Yrotation Xrotation
              JOINT LeftHand
              {
                OFFSET 0 0 25.197169
                CHANNELS 3 Zrotation Yrotation Xrotation
              }
            }
          }
        }
        JOINT RightShoulder
        {
          OFFSET -7.550562 1.41573 9.438202
          CHANNELS 3 Zrotation Yrotation Xrotation
          JOINT RightArm
          {
            OFFSET -9.155056 0 4.247191
            CHANNELS 3 Zrotation Yrotation Xrotation
            JOINT RightForearm
            {
              OFFSET 0 0 -25.771955
              CHANNELS 3 Zrotation Yrotation Xrotation
              JOINT RightHand
              {
                OFFSET 0 0 -25.197169
                CHANNELS 3 Zrotation Yrotation Xrotation
              }
            }
          }
        }
        JOINT Neck
        {
          OFFSET 0 0 15.101124
          CHANNELS 3 Zrotation Yrotation Xrotation
          JOINT Head
          {
            OFFSET 0 0 11.325843
            CHANNELS 3 Zrotation Yrotation Xrotation
            End Site
            {
              OFFSET 0 0 14.157303
            }
          }
        }
      }
    }
  }
}
MOTION
Frames: 16
Frame Time: 0.0
0.0  101.685394  0.0  3.241902  -14.04962  -100.066286  20.074015  -13.476769  -27.742433  3.739099  10.847971  52.337983  -5.547782  -0.863606  -1.220056  -1.420331  13.934461  22.243483  2.531405  1.163013  14.327988  -8.131632  6.788157  -7.002027  1.931286  -0.265949  3.066552  5.235875  -0.969579  8.355272  5.235874  -0.969579  8.355271  -15.022682  21.654281  2.473107  172.357939  57.149315  -141.064031  -33.074546  -20.965685  105.959233  63.566179  -24.86894  -5.353693  0.845525  -8.359197  18.854262  87.832882  55.006723  32.069639  -29.563036  3.534231  -96.979253  76.098944  26.388202  28.712687  3.704711  -0.176172  -3.647758  2.777596  -0.154255  -2.734867  
0.0  101.685394  0.0  3.558301  -13.859464  -100.144734  19.691974  -12.821105  -27.049099  3.850879  10.630647  52.33965  -7.384868  -1.325872  -2.085059  -2.191896  14.969845  21.898242  3.172244  1.070005  15.039144  -8.020323  6.911306  -7.05397  1.955683  -0.262532  3.053665  5.303093  -0.962307  8.319915  5.303093  -0.962307  8.319914  -14.962581  21.559578  2.467704  171.762686  56.847343  -141.699366  -32.946936  -20.69672  106.086045  63.427914  -24.73218  -5.187152  1.064678  -8.686903  18.636531  87.976627  55.398921  32.136628  -29.030649  2.332018  -96.780018  76.371698  26.280617  29.783035  3.618049  -0.040868  -3.510557  2.713408  -0.051438  -2.632785  
0.0  101.685394  0.0  3.918551  -13.623905  -100.293793  19.53036  -11.775382  -25.964067  3.148931  10.529377  51.712975  -8.165622  -1.437342  -2.543949  -3.113609  16.078423  21.40588  3.952808  1.022317  16.047228  -7.935387  7.072671  -7.104873  1.962438  -0.248534  3.059863  5.323161  -0.925485  8.337824  5.32316  -0.925485  8.337825  -14.884987  21.429117  2.357843  171.23717  56.481417  -142.358495  -32.82723  -20.476745  106.299739  63.309773  -24.659629  -4.934134  1.329744  -8.987056  18.36152  88.090556  55.688084  32.06609  -28.88245  1.156302  -96.397878  76.359235  26.214973  30.469835  3.572593  0.09827  -3.3994  2.680089  0.053835  -2.550227  
0.0  101.685394  0.0  4.33123  -13.302638  -100.565142  19.302234  -10.495761  -24.627823  2.178954  10.337121  50.752028  -8.547735  -1.523092  -2.83882  -4.18002  17.272593  20.811937  4.848906  1.02352  17.377167  -7.859588  7.278195  -7.147441  1.951687  -0.223708  3.081366  5.296584  -0.85816  8.398672  5.296584  -0.85816  8.398672  -14.797294  21.266358  2.254657  170.763408  56.040575  -142.987139  -32.715227  -20.359917  106.578153  63.241672  -24.61657  -4.729598  1.570738  -9.309024  18.074723  88.182742  55.831456  31.911451  -28.604713  -0.014065  -95.935217  76.379696  26.239077  31.221889  3.535428  0.229753  -3.281929  2.652892  0.15334  -2.46287  
0.0  101.685394  0.0  4.801338  -12.942328  -100.908447  18.943901  -9.044914  -23.179087  1.080167  10.17505  49.557027  -8.122926  -1.57381  -2.855348  -5.310274  18.540665  20.050279  5.853729  1.016727  19.099117  -7.832864  7.566486  -7.211364  1.926292  -0.193481  3.111471  5.23066  -0.774902  8.483633  5.23066  -0.774902  8.483632  -14.670381  21.139594  2.200129  170.415562  55.546185  -143.493779  -32.597676  -20.311349  106.929065  63.222374  -24.552771  -4.647309  1.823064  -9.645982  17.772439  88.244985  55.848997  31.753338  -28.57819  -1.108623  -95.382825  76.311378  26.248914  31.828335  3.522385  0.377828  -3.165505  2.64382  0.265145  -2.376391  
0.0  101.685394  0.0  5.317086  -12.546143  -101.288623  18.380507  -7.467182  -21.731574  0.148874  9.87405  48.297691  -7.238386  -1.515349  -2.580324  -6.432576  19.800729  19.061244  6.894526  0.980195  21.236443  -7.854563  7.943101  -7.257972  1.87655  -0.164418  3.147161  5.098175  -0.69204  8.584019  5.098176  -0.69204  8.584018  -14.450641  21.08134  2.199353  170.086803  55.037401  -143.916447  -32.539817  -20.315607  107.308909  63.241159  -24.460755  -4.701763  2.136422  -9.788173  17.659964  88.079787  55.967005  31.333095  -27.949201  -2.210952  -94.804496  76.558986  26.478845  33.007552  3.542393  0.561278  -3.072817  2.659675  0.403175  -2.30794  
0.0  101.685394  0.0  5.852192  -12.155565  -101.725383  17.594493  -5.907116  -20.379883  -0.5283  9.21893  47.162305  -6.729206  -1.22117  -2.33135  -7.392429  20.942676  17.886554  7.870905  0.873611  23.790507  -8.019672  8.43098  -7.257132  1.826782  -0.134438  3.190854  4.965745  -0.607126  8.706222  4.965745  -0.607126  8.706222  -14.223808  21.029907  2.267637  169.682374  54.547384  -144.328451  -32.575912  -20.336616  107.69128  63.272646  -24.37858  -4.88213  2.427978  -9.850645  17.637898  87.62262  56.098536  30.685867  -27.911237  -3.214147  -94.254387  76.308636  26.796527  33.482332  3.564954  0.739715  -2.980576  2.677362  0.537437  -2.239806  
0.0  101.685394  0.0  6.384437  -11.823226  -102.214229  16.655431  -4.517984  -19.15351  -1.067369  8.615591  46.2106  -6.426814  -0.810828  -2.300641  -8.061821  21.882006  16.53173  8.668873  0.668705  26.79317  -8.446793  9.035889  -7.202091  1.788249  -0.10839  3.236848  4.863544  -0.534422  8.834193  4.863544  -0.534422  8.834193  -13.969308  20.997378  2.455633  169.161296  54.109774  -144.722803  -32.704178  -20.337886  108.057931  63.319924  -24.290444  -5.175453  2.686271  -9.84357  17.690864  86.799256  56.182174  29.772612  -26.703753  -4.589724  -93.955102  76.761417  27.527748  34.908028  3.485551  0.910542  -2.919824  2.618529  0.666298  -2.1951  
0.0  101.685394  0.0  6.834526  -11.746828  -102.735912  16.13129  -3.432334  -17.955316  -1.430764  8.108157  45.332187  -6.024485  -0.582692  -2.209236  -8.196987  22.513992  14.98933  9.225619  0.454468  30.266185  -9.150427  9.597918  -7.068818  1.78976  -0.100743  3.283276  4.868197  -0.517179  8.961561  4.868197  -0.517179  8.961561  -13.728412  20.984364  2.695468  168.584416  53.689446  -145.13233  -32.845949  -20.274331  108.39812  63.350929  -24.188598  -5.541061  2.970528  -9.795918  17.824972  85.545277  56.232285  28.590409  -26.395657  -5.919424  -93.730353  76.418464  28.150688  35.166874  3.46967  1.060997  -2.766671  2.607045  0.78009  -2.081047  
0.0  101.685394  0.0  7.168294  -11.676389  -103.109338  16.011742  -2.542379  -16.744163  -1.751241  7.613494  44.227824  -5.622971  -0.317211  -1.902011  -8.16852  22.731535  13.007811  9.432908  0.756474  34.298819  -9.935765  9.959443  -6.865444  1.793646  -0.114828  3.306993  4.876639  -0.557842  9.02529  4.876639  -0.557842  9.02529  -13.438552  20.981233  2.978873  167.864056  53.252003  -145.522001  -32.898818  -19.979866  108.866516  63.405836  -23.984749  -6.003103  3.283812  -9.728881  17.997624  83.973956  56.216452  27.263869  -24.806916  -7.740315  -93.849452  77.089344  28.994901  36.616131  3.410272  1.202457  -2.6096  2.5628  0.887333  -1.963911  
0.0  101.685394  0.0  7.427592  -11.92727  -103.468251  16.266293  -1.809425  -15.403379  -1.972918  7.137545  42.828283  -5.719221  -0.299933  -1.696621  -7.647795  22.43575  10.762062  9.25094  1.594849  38.823565  -10.586409  10.458032  -6.534878  1.834031  -0.145507  3.323202  4.982437  -0.648181  9.066859  4.982437  -0.648181  9.066858  -13.124352  20.997722  3.247108  167.09892  52.791148  -145.966574  -32.953019  -19.722176  109.110104  63.332049  -23.938515  -6.354532  3.624241  -9.602377  18.242779  82.120086  56.20279  25.750067  -24.240604  -9.359091  -93.885189  77.074158  29.58432  37.107695  3.416549  1.338208  -2.37056  2.567532  0.990458  -1.785387  
0.0  101.685394  0.0  7.622757  -12.587281  -103.748125  17.071137  -1.293379  -13.978139  -2.128112  6.626229  41.348416  -5.869098  -0.366282  -1.537089  -6.467551  21.632961  8.297626  8.625222  3.036844  43.59673  -10.429742  10.914579  -6.038661  1.944692  -0.19622  3.333292  5.277239  -0.802337  9.08907  5.277239  -0.802337  9.089071  -12.874022  20.963299  3.477369  166.269859  52.295366  -146.399208  -32.914622  -19.265116  109.391561  63.314091  -23.914837  -6.727197  3.950243  -9.398778  18.574772  80.333101  56.128863  24.246928  -23.810032  -10.831696  -93.832987  76.995633  30.079683  37.629975  3.419395  1.482685  -2.096451  2.569526  1.100341  -1.580607  
0.0  101.685394  0.0  7.819133  -13.597663  -104.019939  18.193743  -0.780998  -12.60967  -2.45304  6.089071  39.783973  -6.003425  -0.33784  -1.37649  -4.700654  20.334782  5.659483  8.199223  4.80371  48.418312  -9.562039  11.444803  -5.253697  2.081743  -0.247559  3.332451  5.644109  -0.960957  9.080431  5.644108  -0.960957  9.08043  -12.24208  20.924032  3.780515  165.128688  51.74153  -146.965014  -32.869614  -18.844134  109.58042  63.138666  -24.084548  -6.956041  4.17342  -9.058696  18.954164  78.457712  56.042193  22.457371  -23.350417  -12.098919  -93.740995  76.893816  30.49719  38.284082  3.503821  1.6311  -1.766291  2.63243  1.213259  -1.334035  
0.0  101.685394  0.0  8.060588  -14.842031  -104.260335  19.445432  -0.458915  -11.404302  -2.688105  5.668178  38.315383  -6.197772  -0.252127  -1.254044  -2.411572  18.386926  2.857855  8.478016  6.925428  53.389822  -8.656329  12.026997  -3.934132  2.22962  -0.292433  3.32952  6.04146  -1.103201  9.065819  6.04146  -1.103201  9.06582  -11.375816  20.812552  4.043582  163.816351  51.102215  -147.64501  -32.809069  -18.370672  109.81449  62.898861  -24.308508  -7.099773  4.521658  -8.63992  19.360021  76.709161  55.873378  20.691978  -23.00082  -13.120674  -93.650541  76.468299  30.924966  38.74172  3.794595  1.81336  -1.398049  2.849875  1.351411  -1.05976  
0.0  101.685394  0.0  8.450107  -16.200816  -104.391303  20.272878  -0.185994  -10.585039  -2.466339  5.482421  37.09991  -6.083626  -0.143521  -1.060311  0.212398  16.232549  -0.164949  9.481667  8.595899  58.837365  -6.641172  12.098724  -2.456881  2.368819  -0.299405  3.312443  6.42058  -1.139553  9.01573  6.420581  -1.139553  9.01573  -10.275384  20.59483  4.250748  162.366649  50.432256  -148.455011  -32.745937  -17.810818  110.094452  62.646428  -24.573093  -7.132718  5.069661  -8.274728  19.714532  74.936411  55.690281  18.91599  -22.62362  -14.173544  -93.665565  75.957282  31.379005  39.011182  4.099659  2.002723  -1.174991  3.078296  1.494248  -0.894641  
0.0  101.685394  0.0  8.902331  -17.469297  -104.330582  20.363241  0.159657  -10.285234  -1.850332  5.514644  36.172026  -5.614193  -0.088551  -0.832758  2.962982  14.516155  -3.549831  10.79311  8.078519  64.893188  -4.657591  12.13611  -1.925141  2.476559  -0.254644  3.309878  6.720534  -1.031969  9.010901  6.720534  -1.031969  9.010902  -9.24298  20.192906  4.016379  160.918667  49.788937  -149.47579  -32.679961  -17.165127  110.429027  62.415623  -24.832848  -7.062227  6.124069  -7.916413  19.965939  72.570408  55.702285  16.696018  -22.169954  -15.491969  -93.805617  75.430606  31.948183  39.052792  4.459094  2.162328  -1.253764  3.348378  1.612709  -0.956056  
